<svg width="25" height="25" viewBox="0 0 25 25" fill="none" xmlns="http://www.w3.org/2000/svg">
<g clip-path="url(#clip0_177_2)">
<path d="M20.4766 4.51071H4.47659C3.37659 4.51071 2.47659 5.41071 2.47659 6.51071V18.5107C2.47659 19.6107 3.37659 20.5107 4.47659 20.5107H20.4766C21.5766 20.5107 22.4766 19.6107 22.4766 18.5107V6.51071C22.4766 5.41071 21.5766 4.51071 20.4766 4.51071ZM20.4766 18.5107H4.47659V6.51071H20.4766V18.5107ZM4.47659 0.510712H20.4766V2.51071H4.47659M4.47659 22.5107H20.4766V24.5107H4.47659M12.4766 12.5107C13.8566 12.5107 14.9766 11.3907 14.9766 10.0107C14.9766 8.63071 13.8566 7.51071 12.4766 7.51071C11.0966 7.51071 9.97659 8.63071 9.97659 10.0107C9.97659 11.3907 11.0966 12.5107 12.4766 12.5107ZM12.4766 9.01071C13.0266 9.01071 13.4766 9.46071 13.4766 10.0107C13.4766 10.5607 13.0266 11.0107 12.4766 11.0107C11.9266 11.0107 11.4766 10.5607 11.4766 10.0107C11.4766 9.46071 11.9266 9.01071 12.4766 9.01071ZM17.4766 16.5107C17.4766 14.4107 14.1666 13.5107 12.4766 13.5107C10.7866 13.5107 7.47659 14.4107 7.47659 16.5107V17.5107H17.4766V16.5107ZM9.28659 16.0107C9.89659 15.5107 11.3166 15.0107 12.4766 15.0107C13.6466 15.0107 15.0666 15.5107 15.6766 16.0107H9.28659Z" fill="black"/>
</g>
<defs>
<clipPath id="clip0_177_2">
<rect width="24" height="24" fill="white" transform="translate(0.476593 0.510712)"/>
</clipPath>
</defs>
</svg>
