<svg width="174" height="80" viewBox="0 0 174 80" fill="none" xmlns="http://www.w3.org/2000/svg">
<path d="M45.6016 10.4258L37.8672 34H31.6367L42.2031 5.5625H46.168L45.6016 10.4258ZM52.0273 34L44.2734 10.4258L43.6484 5.5625H47.6523L58.2773 34H52.0273ZM51.6758 23.4141V28.0039H36.6562V23.4141H51.6758ZM72.7883 23.8633H65.5422V19.293H72.7883C73.9081 19.293 74.8195 19.1107 75.5227 18.7461C76.2258 18.3685 76.7401 17.8477 77.0656 17.1836C77.3911 16.5195 77.5539 15.7708 77.5539 14.9375C77.5539 14.0911 77.3911 13.3034 77.0656 12.5742C76.7401 11.8451 76.2258 11.2591 75.5227 10.8164C74.8195 10.3737 73.9081 10.1523 72.7883 10.1523H67.5734V34H61.7141V5.5625H72.7883C75.0148 5.5625 76.9224 5.96615 78.5109 6.77344C80.1125 7.56771 81.3365 8.66797 82.1828 10.0742C83.0292 11.4805 83.4523 13.0885 83.4523 14.8984C83.4523 16.7344 83.0292 18.3229 82.1828 19.6641C81.3365 21.0052 80.1125 22.0404 78.5109 22.7695C76.9224 23.4987 75.0148 23.8633 72.7883 23.8633ZM111.44 5.5625V34H105.58L94.1547 14.9375V34H88.2953V5.5625H94.1547L105.6 24.6445V5.5625H111.44ZM129.252 10.4258L121.517 34H115.287L125.853 5.5625H129.818L129.252 10.4258ZM135.677 34L127.923 10.4258L127.298 5.5625H131.302L141.927 34H135.677ZM135.326 23.4141V28.0039H120.306V23.4141H135.326Z" fill="#FFA511"/>
<path d="M19.0234 64.5664H24.8633C24.7461 66.4805 24.2188 68.1797 23.2812 69.6641C22.3568 71.1484 21.0612 72.3073 19.3945 73.1406C17.7409 73.974 15.7487 74.3906 13.418 74.3906C11.5951 74.3906 9.96094 74.0781 8.51562 73.4531C7.07031 72.8151 5.83333 71.9036 4.80469 70.7188C3.78906 69.5339 3.01432 68.1016 2.48047 66.4219C1.94661 64.7422 1.67969 62.8607 1.67969 60.7773V58.8047C1.67969 56.7214 1.95312 54.8398 2.5 53.1602C3.0599 51.4674 3.85417 50.0286 4.88281 48.8438C5.92448 47.6589 7.16797 46.7474 8.61328 46.1094C10.0586 45.4714 11.6732 45.1523 13.457 45.1523C15.8268 45.1523 17.8255 45.582 19.4531 46.4414C21.0938 47.3008 22.3633 48.4857 23.2617 49.9961C24.1732 51.5065 24.7201 53.2253 24.9023 55.1523H19.043C18.9779 54.0065 18.75 53.0365 18.3594 52.2422C17.9688 51.4349 17.3763 50.8294 16.582 50.4258C15.8008 50.0091 14.7591 49.8008 13.457 49.8008C12.4805 49.8008 11.6276 49.9831 10.8984 50.3477C10.1693 50.7122 9.55729 51.2656 9.0625 52.0078C8.56771 52.75 8.19661 53.6875 7.94922 54.8203C7.71484 55.9401 7.59766 57.2552 7.59766 58.7656V60.7773C7.59766 62.2487 7.70833 63.5443 7.92969 64.6641C8.15104 65.7708 8.48958 66.7083 8.94531 67.4766C9.41406 68.2318 10.013 68.8047 10.7422 69.1953C11.4844 69.5729 12.3763 69.7617 13.418 69.7617C14.6419 69.7617 15.651 69.5664 16.4453 69.1758C17.2396 68.7852 17.8451 68.2057 18.2617 67.4375C18.6914 66.6693 18.9453 65.7122 19.0234 64.5664ZM52.0703 59.1172V60.4648C52.0703 62.6263 51.7773 64.5664 51.1914 66.2852C50.6055 68.0039 49.7786 69.4688 48.7109 70.6797C47.6432 71.8776 46.3672 72.7956 44.8828 73.4336C43.4115 74.0716 41.7773 74.3906 39.9805 74.3906C38.1966 74.3906 36.5625 74.0716 35.0781 73.4336C33.6068 72.7956 32.3307 71.8776 31.25 70.6797C30.1693 69.4688 29.3294 68.0039 28.7305 66.2852C28.1445 64.5664 27.8516 62.6263 27.8516 60.4648V59.1172C27.8516 56.9427 28.1445 55.0026 28.7305 53.2969C29.3164 51.5781 30.1432 50.1133 31.2109 48.9023C32.2917 47.6914 33.5677 46.7669 35.0391 46.1289C36.5234 45.4909 38.1576 45.1719 39.9414 45.1719C41.7383 45.1719 43.3724 45.4909 44.8438 46.1289C46.3281 46.7669 47.6042 47.6914 48.6719 48.9023C49.7526 50.1133 50.5859 51.5781 51.1719 53.2969C51.7708 55.0026 52.0703 56.9427 52.0703 59.1172ZM46.1523 60.4648V59.0781C46.1523 57.5677 46.0156 56.2396 45.7422 55.0938C45.4688 53.9479 45.0651 52.9844 44.5312 52.2031C43.9974 51.4219 43.3464 50.8359 42.5781 50.4453C41.8099 50.0417 40.931 49.8398 39.9414 49.8398C38.9518 49.8398 38.0729 50.0417 37.3047 50.4453C36.5495 50.8359 35.9049 51.4219 35.3711 52.2031C34.8503 52.9844 34.4531 53.9479 34.1797 55.0938C33.9062 56.2396 33.7695 57.5677 33.7695 59.0781V60.4648C33.7695 61.9622 33.9062 63.2904 34.1797 64.4492C34.4531 65.5951 34.8568 66.5651 35.3906 67.3594C35.9245 68.1406 36.5755 68.7331 37.3438 69.1367C38.112 69.5404 38.9909 69.7422 39.9805 69.7422C40.9701 69.7422 41.849 69.5404 42.6172 69.1367C43.3854 68.7331 44.0299 68.1406 44.5508 67.3594C45.0716 66.5651 45.4688 65.5951 45.7422 64.4492C46.0156 63.2904 46.1523 61.9622 46.1523 60.4648ZM74.5703 69.4297V74H60.2539V69.4297H74.5703ZM62.1484 45.5625V74H56.2891V45.5625H62.1484ZM96.2109 69.4297V74H81.8945V69.4297H96.2109ZM83.7891 45.5625V74H77.9297V45.5625H83.7891ZM111.523 50.4258L103.789 74H97.5586L108.125 45.5625H112.09L111.523 50.4258ZM117.949 74L110.195 50.4258L109.57 45.5625H113.574L124.199 74H117.949ZM117.598 63.4141V68.0039H102.578V63.4141H117.598ZM149.023 59.1367V70.4062C148.581 70.9401 147.897 71.5195 146.973 72.1445C146.048 72.7565 144.857 73.2839 143.398 73.7266C141.94 74.1693 140.176 74.3906 138.105 74.3906C136.27 74.3906 134.596 74.0911 133.086 73.4922C131.576 72.8802 130.273 71.9883 129.18 70.8164C128.099 69.6445 127.266 68.2122 126.68 66.5195C126.094 64.8138 125.801 62.8672 125.801 60.6797V58.9023C125.801 56.7148 126.081 54.7682 126.641 53.0625C127.214 51.3568 128.027 49.918 129.082 48.7461C130.137 47.5742 131.393 46.6823 132.852 46.0703C134.31 45.4583 135.931 45.1523 137.715 45.1523C140.189 45.1523 142.22 45.556 143.809 46.3633C145.397 47.1576 146.608 48.2643 147.441 49.6836C148.288 51.0898 148.809 52.7044 149.004 54.5273H143.32C143.177 53.5638 142.904 52.724 142.5 52.0078C142.096 51.2917 141.517 50.7318 140.762 50.3281C140.02 49.9245 139.056 49.7227 137.871 49.7227C136.895 49.7227 136.022 49.9245 135.254 50.3281C134.499 50.7188 133.861 51.2982 133.34 52.0664C132.819 52.8346 132.422 53.7852 132.148 54.918C131.875 56.0508 131.738 57.3659 131.738 58.8633V60.6797C131.738 62.1641 131.882 63.4792 132.168 64.625C132.454 65.7578 132.878 66.7148 133.438 67.4961C134.01 68.2643 134.714 68.8438 135.547 69.2344C136.38 69.625 137.35 69.8203 138.457 69.8203C139.382 69.8203 140.15 69.7422 140.762 69.5859C141.387 69.4297 141.888 69.2409 142.266 69.0195C142.656 68.7852 142.956 68.5638 143.164 68.3555V63.3164H137.812V59.1367H149.023ZM172.832 69.4297V74H157.695V69.4297H172.832ZM159.609 45.5625V74H153.75V45.5625H159.609ZM170.859 57.1445V61.5977H157.695V57.1445H170.859ZM172.812 45.5625V50.1523H157.695V45.5625H172.812Z" fill="#0E4573"/>
</svg>
