<svg width="232" height="102" viewBox="0 0 232 102" fill="none" xmlns="http://www.w3.org/2000/svg">
<path d="M52.291 42.4912H62.5107C62.3057 45.8408 61.3828 48.8145 59.7422 51.4121C58.1243 54.0098 55.8571 56.0378 52.9404 57.4961C50.0465 58.9544 46.5602 59.6836 42.4814 59.6836C39.2913 59.6836 36.4316 59.1367 33.9023 58.043C31.373 56.9264 29.2083 55.3314 27.4082 53.2578C25.6309 51.1842 24.2751 48.6777 23.3408 45.7383C22.4066 42.7988 21.9395 39.5062 21.9395 35.8604V32.4082C21.9395 28.7624 22.418 25.4697 23.375 22.5303C24.3548 19.568 25.7448 17.0501 27.5449 14.9766C29.3678 12.903 31.5439 11.3079 34.0732 10.1914C36.6025 9.07487 39.4281 8.5166 42.5498 8.5166C46.6969 8.5166 50.1947 9.26855 53.043 10.7725C55.9141 12.2764 58.1357 14.3499 59.708 16.9932C61.3031 19.6364 62.2601 22.6442 62.5791 26.0166H52.3252C52.2113 24.0114 51.8125 22.3138 51.1289 20.9238C50.4453 19.5111 49.4085 18.4515 48.0186 17.7451C46.6514 17.016 44.8285 16.6514 42.5498 16.6514C40.8408 16.6514 39.3483 16.9704 38.0723 17.6084C36.7962 18.2464 35.7253 19.2148 34.8594 20.5137C33.9935 21.8125 33.3441 23.4531 32.9111 25.4355C32.501 27.3952 32.2959 29.6966 32.2959 32.3398V35.8604C32.2959 38.4352 32.4896 40.7025 32.877 42.6621C33.2643 44.599 33.8568 46.2396 34.6543 47.584C35.4746 48.9056 36.5228 49.9082 37.7988 50.5918C39.0977 51.2526 40.6585 51.583 42.4814 51.583C44.6234 51.583 46.3893 51.2412 47.7793 50.5576C49.1693 49.874 50.2288 48.86 50.958 47.5156C51.71 46.1712 52.1543 44.4964 52.291 42.4912ZM88.624 41.2607H75.9434V33.2627H88.624C90.5837 33.2627 92.1787 32.9437 93.4092 32.3057C94.6396 31.6449 95.5397 30.7334 96.1094 29.5713C96.679 28.4092 96.9639 27.099 96.9639 25.6406C96.9639 24.1595 96.679 22.7809 96.1094 21.5049C95.5397 20.2288 94.6396 19.2035 93.4092 18.4287C92.1787 17.654 90.5837 17.2666 88.624 17.2666H79.498V59H69.2441V9.23438H88.624C92.5205 9.23438 95.8587 9.94076 98.6387 11.3535C101.441 12.7435 103.583 14.6689 105.064 17.1299C106.546 19.5908 107.286 22.4049 107.286 25.5723C107.286 28.7852 106.546 31.5651 105.064 33.9121C103.583 36.2591 101.441 38.0706 98.6387 39.3467C95.8587 40.6227 92.5205 41.2607 88.624 41.2607ZM133.844 37.1592H121.061L120.992 30.1182H131.725C133.616 30.1182 135.165 29.8789 136.373 29.4004C137.581 28.8991 138.481 28.1813 139.073 27.2471C139.688 26.29 139.996 25.1279 139.996 23.7607C139.996 22.2113 139.7 20.958 139.107 20.001C138.538 19.0439 137.638 18.349 136.407 17.916C135.2 17.4831 133.639 17.2666 131.725 17.2666H124.615V59H114.361V9.23438H131.725C134.618 9.23438 137.205 9.50781 139.483 10.0547C141.785 10.6016 143.733 11.4333 145.328 12.5498C146.923 13.6663 148.142 15.0791 148.985 16.7881C149.828 18.4743 150.25 20.4795 150.25 22.8037C150.25 24.8545 149.783 26.7458 148.849 28.4775C147.937 30.2093 146.49 31.6221 144.508 32.7158C142.548 33.8096 139.985 34.4134 136.817 34.5273L133.844 37.1592ZM133.399 59H118.258L122.257 51.002H133.399C135.2 51.002 136.669 50.7171 137.809 50.1475C138.948 49.555 139.791 48.7575 140.338 47.7549C140.885 46.7523 141.158 45.6016 141.158 44.3027C141.158 42.8444 140.908 41.5798 140.406 40.5088C139.928 39.4378 139.153 38.6175 138.082 38.0479C137.011 37.4554 135.598 37.1592 133.844 37.1592H123.966L124.034 30.1182H136.339L138.697 32.8867C141.728 32.8411 144.166 33.3766 146.012 34.4932C147.88 35.5869 149.236 37.0111 150.079 38.7656C150.945 40.5202 151.378 42.4001 151.378 44.4053C151.378 47.5954 150.683 50.2842 149.293 52.4717C147.903 54.6364 145.864 56.2656 143.175 57.3594C140.509 58.4531 137.25 59 133.399 59ZM169.322 9.23438V59H159.068V9.23438H169.322ZM189.146 30.4941V38.4922H166.52V30.4941H189.146ZM191.539 9.23438V17.2666H166.52V9.23438H191.539ZM208.39 9.23438V59H198.17V9.23438H208.39Z" fill="#0089ED"/>
<path d="M13.6719 80.5195H6.36719L6.32812 76.4961H12.4609C13.5417 76.4961 14.4271 76.3594 15.1172 76.0859C15.8073 75.7995 16.3216 75.3893 16.6602 74.8555C17.0117 74.3086 17.1875 73.6445 17.1875 72.8633C17.1875 71.9779 17.0182 71.2617 16.6797 70.7148C16.3542 70.168 15.8398 69.7708 15.1367 69.5234C14.4466 69.276 13.5547 69.1523 12.4609 69.1523H8.39844V93H2.53906V64.5625H12.4609C14.1146 64.5625 15.5924 64.7188 16.8945 65.0312C18.2096 65.3438 19.3229 65.819 20.2344 66.457C21.1458 67.0951 21.8424 67.9023 22.3242 68.8789C22.806 69.8424 23.0469 70.9883 23.0469 72.3164C23.0469 73.4883 22.7799 74.569 22.2461 75.5586C21.7253 76.5482 20.8984 77.3555 19.7656 77.9805C18.6458 78.6055 17.181 78.9505 15.3711 79.0156L13.6719 80.5195ZM13.418 93H4.76562L7.05078 88.4297H13.418C14.4466 88.4297 15.2865 88.2669 15.9375 87.9414C16.5885 87.6029 17.0703 87.1471 17.3828 86.5742C17.6953 86.0013 17.8516 85.3438 17.8516 84.6016C17.8516 83.7682 17.7083 83.0456 17.4219 82.4336C17.1484 81.8216 16.7057 81.3529 16.0938 81.0273C15.4818 80.6888 14.6745 80.5195 13.6719 80.5195H8.02734L8.06641 76.4961H15.0977L16.4453 78.0781C18.1771 78.0521 19.5703 78.3581 20.625 78.9961C21.6927 79.6211 22.4674 80.4349 22.9492 81.4375C23.444 82.4401 23.6914 83.5143 23.6914 84.6602C23.6914 86.4831 23.2943 88.0195 22.5 89.2695C21.7057 90.5065 20.5404 91.4375 19.0039 92.0625C17.4805 92.6875 15.6185 93 13.418 93ZM39.1406 88.2344V78.8203C39.1406 78.1432 39.0299 77.5638 38.8086 77.082C38.5872 76.5872 38.2422 76.2031 37.7734 75.9297C37.3177 75.6562 36.7253 75.5195 35.9961 75.5195C35.3711 75.5195 34.8307 75.6302 34.375 75.8516C33.9193 76.0599 33.5677 76.3659 33.3203 76.7695C33.0729 77.1602 32.9492 77.6224 32.9492 78.1562H27.3242C27.3242 77.2578 27.5326 76.4049 27.9492 75.5977C28.3659 74.7904 28.9714 74.0807 29.7656 73.4688C30.5599 72.8438 31.5039 72.3555 32.5977 72.0039C33.7044 71.6523 34.9414 71.4766 36.3086 71.4766C37.9492 71.4766 39.4076 71.75 40.6836 72.2969C41.9596 72.8438 42.9622 73.6641 43.6914 74.7578C44.4336 75.8516 44.8047 77.2188 44.8047 78.8594V87.9023C44.8047 89.0612 44.8763 90.0117 45.0195 90.7539C45.1628 91.4831 45.3711 92.1211 45.6445 92.668V93H39.9609C39.6875 92.4271 39.4792 91.7109 39.3359 90.8516C39.2057 89.9792 39.1406 89.1068 39.1406 88.2344ZM39.8828 80.1289L39.9219 83.3125H36.7773C36.0352 83.3125 35.3906 83.3971 34.8438 83.5664C34.2969 83.7357 33.8477 83.9766 33.4961 84.2891C33.1445 84.5885 32.8841 84.9401 32.7148 85.3438C32.5586 85.7474 32.4805 86.1901 32.4805 86.6719C32.4805 87.1536 32.5911 87.5898 32.8125 87.9805C33.0339 88.3581 33.3529 88.6576 33.7695 88.8789C34.1862 89.0872 34.6745 89.1914 35.2344 89.1914C36.0807 89.1914 36.8164 89.0221 37.4414 88.6836C38.0664 88.3451 38.5482 87.9284 38.8867 87.4336C39.2383 86.9388 39.4206 86.4701 39.4336 86.0273L40.918 88.4102C40.7096 88.944 40.4232 89.4974 40.0586 90.0703C39.707 90.6432 39.2578 91.1836 38.7109 91.6914C38.1641 92.1862 37.5065 92.5964 36.7383 92.9219C35.9701 93.2344 35.0586 93.3906 34.0039 93.3906C32.6628 93.3906 31.4453 93.1237 30.3516 92.5898C29.2708 92.043 28.4115 91.2943 27.7734 90.3438C27.1484 89.3802 26.8359 88.2865 26.8359 87.0625C26.8359 85.9557 27.0443 84.9727 27.4609 84.1133C27.8776 83.2539 28.4896 82.5312 29.2969 81.9453C30.1172 81.3464 31.1393 80.8971 32.3633 80.5977C33.5872 80.2852 35.0065 80.1289 36.6211 80.1289H39.8828ZM49.4531 71.8672H55.0977V94.2695C55.0977 95.832 54.8112 97.1536 54.2383 98.2344C53.6654 99.3151 52.8385 100.135 51.7578 100.695C50.6771 101.255 49.3685 101.535 47.832 101.535C47.3503 101.535 46.8815 101.509 46.4258 101.457C45.957 101.405 45.4753 101.32 44.9805 101.203L45 96.8867C45.3125 96.9388 45.6185 96.9779 45.918 97.0039C46.2044 97.043 46.4974 97.0625 46.7969 97.0625C47.3828 97.0625 47.8711 96.9648 48.2617 96.7695C48.6523 96.5742 48.9453 96.2682 49.1406 95.8516C49.349 95.4479 49.4531 94.9206 49.4531 94.2695V71.8672ZM49.0039 66.3594C49.0039 65.5391 49.2904 64.862 49.8633 64.3281C50.4492 63.7943 51.2174 63.5273 52.168 63.5273C53.1315 63.5273 53.8997 63.7943 54.4727 64.3281C55.0456 64.862 55.332 65.5391 55.332 66.3594C55.332 67.1797 55.0456 67.8568 54.4727 68.3906C53.8997 68.9245 53.1315 69.1914 52.168 69.1914C51.2174 69.1914 50.4492 68.9245 49.8633 68.3906C49.2904 67.8568 49.0039 67.1797 49.0039 66.3594ZM70.9766 88.2344V78.8203C70.9766 78.1432 70.8659 77.5638 70.6445 77.082C70.4232 76.5872 70.0781 76.2031 69.6094 75.9297C69.1536 75.6562 68.5612 75.5195 67.832 75.5195C67.207 75.5195 66.6667 75.6302 66.2109 75.8516C65.7552 76.0599 65.4036 76.3659 65.1562 76.7695C64.9089 77.1602 64.7852 77.6224 64.7852 78.1562H59.1602C59.1602 77.2578 59.3685 76.4049 59.7852 75.5977C60.2018 74.7904 60.8073 74.0807 61.6016 73.4688C62.3958 72.8438 63.3398 72.3555 64.4336 72.0039C65.5404 71.6523 66.7773 71.4766 68.1445 71.4766C69.7852 71.4766 71.2435 71.75 72.5195 72.2969C73.7956 72.8438 74.7982 73.6641 75.5273 74.7578C76.2695 75.8516 76.6406 77.2188 76.6406 78.8594V87.9023C76.6406 89.0612 76.7122 90.0117 76.8555 90.7539C76.9987 91.4831 77.207 92.1211 77.4805 92.668V93H71.7969C71.5234 92.4271 71.3151 91.7109 71.1719 90.8516C71.0417 89.9792 70.9766 89.1068 70.9766 88.2344ZM71.7188 80.1289L71.7578 83.3125H68.6133C67.8711 83.3125 67.2266 83.3971 66.6797 83.5664C66.1328 83.7357 65.6836 83.9766 65.332 84.2891C64.9805 84.5885 64.7201 84.9401 64.5508 85.3438C64.3945 85.7474 64.3164 86.1901 64.3164 86.6719C64.3164 87.1536 64.4271 87.5898 64.6484 87.9805C64.8698 88.3581 65.1888 88.6576 65.6055 88.8789C66.0221 89.0872 66.5104 89.1914 67.0703 89.1914C67.9167 89.1914 68.6523 89.0221 69.2773 88.6836C69.9023 88.3451 70.3841 87.9284 70.7227 87.4336C71.0742 86.9388 71.2565 86.4701 71.2695 86.0273L72.7539 88.4102C72.5456 88.944 72.2591 89.4974 71.8945 90.0703C71.543 90.6432 71.0938 91.1836 70.5469 91.6914C70 92.1862 69.3424 92.5964 68.5742 92.9219C67.806 93.2344 66.8945 93.3906 65.8398 93.3906C64.4987 93.3906 63.2812 93.1237 62.1875 92.5898C61.1068 92.043 60.2474 91.2943 59.6094 90.3438C58.9844 89.3802 58.6719 88.2865 58.6719 87.0625C58.6719 85.9557 58.8802 84.9727 59.2969 84.1133C59.7135 83.2539 60.3255 82.5312 61.1328 81.9453C61.9531 81.3464 62.9753 80.8971 64.1992 80.5977C65.4232 80.2852 66.8424 80.1289 68.457 80.1289H71.7188ZM81.2891 71.8672H86.9336V94.2695C86.9336 95.832 86.6471 97.1536 86.0742 98.2344C85.5013 99.3151 84.6745 100.135 83.5938 100.695C82.513 101.255 81.2044 101.535 79.668 101.535C79.1862 101.535 78.7174 101.509 78.2617 101.457C77.793 101.405 77.3112 101.32 76.8164 101.203L76.8359 96.8867C77.1484 96.9388 77.4544 96.9779 77.7539 97.0039C78.0404 97.043 78.3333 97.0625 78.6328 97.0625C79.2188 97.0625 79.707 96.9648 80.0977 96.7695C80.4883 96.5742 80.7812 96.2682 80.9766 95.8516C81.1849 95.4479 81.2891 94.9206 81.2891 94.2695V71.8672ZM80.8398 66.3594C80.8398 65.5391 81.1263 64.862 81.6992 64.3281C82.2852 63.7943 83.0534 63.5273 84.0039 63.5273C84.9674 63.5273 85.7357 63.7943 86.3086 64.3281C86.8815 64.862 87.168 65.5391 87.168 66.3594C87.168 67.1797 86.8815 67.8568 86.3086 68.3906C85.7357 68.9245 84.9674 69.1914 84.0039 69.1914C83.0534 69.1914 82.2852 68.9245 81.6992 68.3906C81.1263 67.8568 80.8398 67.1797 80.8398 66.3594ZM107.578 64.5625V93H101.719V64.5625H107.578ZM118.906 76.7109V81.2812H105.977V76.7109H118.906ZM120.273 64.5625V69.1523H105.977V64.5625H120.273ZM129.258 71.8672V93H123.613V71.8672H129.258ZM123.262 66.3594C123.262 65.5391 123.548 64.862 124.121 64.3281C124.694 63.7943 125.462 63.5273 126.426 63.5273C127.376 63.5273 128.138 63.7943 128.711 64.3281C129.297 64.862 129.59 65.5391 129.59 66.3594C129.59 67.1797 129.297 67.8568 128.711 68.3906C128.138 68.9245 127.376 69.1914 126.426 69.1914C125.462 69.1914 124.694 68.9245 124.121 68.3906C123.548 67.8568 123.262 67.1797 123.262 66.3594ZM139.414 76.3789V93H133.789V71.8672H139.062L139.414 76.3789ZM138.594 81.6914H137.07C137.07 80.1289 137.272 78.7227 137.676 77.4727C138.079 76.2096 138.646 75.1354 139.375 74.25C140.104 73.3516 140.97 72.668 141.973 72.1992C142.988 71.7174 144.121 71.4766 145.371 71.4766C146.361 71.4766 147.266 71.6198 148.086 71.9062C148.906 72.1927 149.609 72.6484 150.195 73.2734C150.794 73.8984 151.25 74.7253 151.562 75.7539C151.888 76.7826 152.051 78.0391 152.051 79.5234V93H146.387V79.5039C146.387 78.5664 146.257 77.8372 145.996 77.3164C145.736 76.7956 145.352 76.431 144.844 76.2227C144.349 76.0013 143.737 75.8906 143.008 75.8906C142.253 75.8906 141.595 76.0404 141.035 76.3398C140.488 76.6393 140.033 77.056 139.668 77.5898C139.316 78.1107 139.049 78.7227 138.867 79.4258C138.685 80.1289 138.594 80.8841 138.594 81.6914ZM167.754 87.1602C167.754 86.7565 167.637 86.3919 167.402 86.0664C167.168 85.7409 166.732 85.4414 166.094 85.168C165.469 84.8815 164.564 84.6211 163.379 84.3867C162.311 84.1523 161.315 83.8594 160.391 83.5078C159.479 83.1432 158.685 82.707 158.008 82.1992C157.344 81.6914 156.823 81.0924 156.445 80.4023C156.068 79.6992 155.879 78.8984 155.879 78C155.879 77.1146 156.068 76.2812 156.445 75.5C156.836 74.7188 157.389 74.0286 158.105 73.4297C158.835 72.8177 159.72 72.3424 160.762 72.0039C161.816 71.6523 163.001 71.4766 164.316 71.4766C166.152 71.4766 167.728 71.7695 169.043 72.3555C170.371 72.9414 171.387 73.7487 172.09 74.7773C172.806 75.793 173.164 76.9518 173.164 78.2539H167.539C167.539 77.707 167.422 77.2188 167.188 76.7891C166.966 76.3464 166.615 76.0013 166.133 75.7539C165.664 75.4935 165.052 75.3633 164.297 75.3633C163.672 75.3633 163.132 75.474 162.676 75.6953C162.22 75.9036 161.868 76.1901 161.621 76.5547C161.387 76.9062 161.27 77.2969 161.27 77.7266C161.27 78.0521 161.335 78.3451 161.465 78.6055C161.608 78.8529 161.836 79.0807 162.148 79.2891C162.461 79.4974 162.865 79.6927 163.359 79.875C163.867 80.0443 164.492 80.2005 165.234 80.3438C166.758 80.6562 168.118 81.0664 169.316 81.5742C170.514 82.069 171.465 82.7461 172.168 83.6055C172.871 84.4518 173.223 85.5651 173.223 86.9453C173.223 87.8828 173.014 88.7422 172.598 89.5234C172.181 90.3047 171.582 90.9883 170.801 91.5742C170.02 92.1471 169.082 92.5964 167.988 92.9219C166.908 93.2344 165.69 93.3906 164.336 93.3906C162.37 93.3906 160.703 93.0391 159.336 92.3359C157.982 91.6328 156.953 90.7409 156.25 89.6602C155.56 88.5664 155.215 87.4466 155.215 86.3008H160.547C160.573 87.069 160.768 87.6875 161.133 88.1562C161.51 88.625 161.986 88.9635 162.559 89.1719C163.145 89.3802 163.776 89.4844 164.453 89.4844C165.182 89.4844 165.788 89.3867 166.27 89.1914C166.751 88.9831 167.116 88.7096 167.363 88.3711C167.624 88.0195 167.754 87.6159 167.754 87.1602ZM186.602 93.3906C184.961 93.3906 183.49 93.1302 182.188 92.6094C180.885 92.0755 179.779 91.3398 178.867 90.4023C177.969 89.4648 177.279 88.3776 176.797 87.1406C176.315 85.8906 176.074 84.5625 176.074 83.1562V82.375C176.074 80.7734 176.302 79.3086 176.758 77.9805C177.214 76.6523 177.865 75.5 178.711 74.5234C179.57 73.5469 180.612 72.7982 181.836 72.2773C183.06 71.7435 184.44 71.4766 185.977 71.4766C187.474 71.4766 188.802 71.724 189.961 72.2188C191.12 72.7135 192.09 73.4167 192.871 74.3281C193.665 75.2396 194.264 76.3333 194.668 77.6094C195.072 78.8724 195.273 80.2786 195.273 81.8281V84.1719H178.477V80.4219H189.746V79.9922C189.746 79.2109 189.603 78.5143 189.316 77.9023C189.043 77.2773 188.626 76.7826 188.066 76.418C187.507 76.0534 186.79 75.8711 185.918 75.8711C185.176 75.8711 184.538 76.0339 184.004 76.3594C183.47 76.6849 183.034 77.1406 182.695 77.7266C182.37 78.3125 182.122 79.0026 181.953 79.7969C181.797 80.5781 181.719 81.4375 181.719 82.375V83.1562C181.719 84.0026 181.836 84.7839 182.07 85.5C182.318 86.2161 182.663 86.8346 183.105 87.3555C183.561 87.8763 184.108 88.2799 184.746 88.5664C185.397 88.8529 186.133 88.9961 186.953 88.9961C187.969 88.9961 188.913 88.8008 189.785 88.4102C190.671 88.0065 191.432 87.401 192.07 86.5938L194.805 89.5625C194.362 90.2005 193.757 90.8125 192.988 91.3984C192.233 91.9844 191.322 92.4661 190.254 92.8438C189.186 93.2083 187.969 93.3906 186.602 93.3906ZM204.102 76.4766V93H198.477V71.8672H203.77L204.102 76.4766ZM210.469 71.7305L210.371 76.9453C210.098 76.9062 209.766 76.8737 209.375 76.8477C208.997 76.8086 208.652 76.7891 208.34 76.7891C207.546 76.7891 206.855 76.8932 206.27 77.1016C205.697 77.2969 205.215 77.5898 204.824 77.9805C204.447 78.3711 204.16 78.8464 203.965 79.4062C203.783 79.9661 203.678 80.6042 203.652 81.3203L202.52 80.9688C202.52 79.6016 202.656 78.3451 202.93 77.1992C203.203 76.0404 203.6 75.0312 204.121 74.1719C204.655 73.3125 205.306 72.6484 206.074 72.1797C206.842 71.7109 207.721 71.4766 208.711 71.4766C209.023 71.4766 209.342 71.5026 209.668 71.5547C209.993 71.5938 210.26 71.6523 210.469 71.7305ZM220.664 88.8984L225.352 71.8672H231.23L224.102 93H220.547L220.664 88.8984ZM217.441 71.8672L222.148 88.918L222.246 93H218.672L211.543 71.8672H217.441Z" fill="#004E87"/>
</svg>
