<svg width="30" height="30" viewBox="0 0 30 30" fill="none" xmlns="http://www.w3.org/2000/svg">
<mask id="path-1-inside-1_8_32" fill="white">
<path d="M25 22.5H22.5V11.5625L15 16.25L7.5 11.5625V22.5H5V7.5H6.5L15 12.8125L23.5 7.5H25M25 5H5C3.6125 5 2.5 6.1125 2.5 7.5V22.5C2.5 23.163 2.76339 23.7989 3.23223 24.2678C3.70107 24.7366 4.33696 25 5 25H25C25.663 25 26.2989 24.7366 26.7678 24.2678C27.2366 23.7989 27.5 23.163 27.5 22.5V7.5C27.5 6.1125 26.375 5 25 5Z"/>
</mask>
<path d="M25 22.5H22.5V11.5625L15 16.25L7.5 11.5625V22.5H5V7.5H6.5L15 12.8125L23.5 7.5H25M25 5H5C3.6125 5 2.5 6.1125 2.5 7.5V22.5C2.5 23.163 2.76339 23.7989 3.23223 24.2678C3.70107 24.7366 4.33696 25 5 25H25C25.663 25 26.2989 24.7366 26.7678 24.2678C27.2366 23.7989 27.5 23.163 27.5 22.5V7.5C27.5 6.1125 26.375 5 25 5Z" fill="#FF5C00"/>
<path d="M22.5 22.5H22V23H22.5V22.5ZM22.5 11.5625H23V10.6604L22.235 11.1385L22.5 11.5625ZM15 16.25L14.735 16.674L15 16.8396L15.265 16.674L15 16.25ZM7.5 11.5625L7.765 11.1385L7 10.6604V11.5625H7.5ZM7.5 22.5V23H8V22.5H7.5ZM5 22.5H4.5V23H5V22.5ZM5 7.5V7H4.5V7.5H5ZM6.5 7.5L6.765 7.076L6.6434 7H6.5V7.5ZM15 12.8125L14.735 13.2365L15 13.4021L15.265 13.2365L15 12.8125ZM23.5 7.5V7H23.3566L23.235 7.076L23.5 7.5ZM2.5 22.5H2H2.5ZM25 22H22.5V23H25V22ZM23 22.5V11.5625H22V22.5H23ZM22.235 11.1385L14.735 15.826L15.265 16.674L22.765 11.9865L22.235 11.1385ZM15.265 15.826L7.765 11.1385L7.235 11.9865L14.735 16.674L15.265 15.826ZM7 11.5625V22.5H8V11.5625H7ZM7.5 22H5V23H7.5V22ZM5.5 22.5V7.5H4.5V22.5H5.5ZM5 8H6.5V7H5V8ZM6.235 7.924L14.735 13.2365L15.265 12.3885L6.765 7.076L6.235 7.924ZM15.265 13.2365L23.765 7.924L23.235 7.076L14.735 12.3885L15.265 13.2365ZM23.5 8H25V7H23.5V8ZM25 4.5H5V5.5H25V4.5ZM5 4.5C3.33636 4.5 2 5.83636 2 7.5H3C3 6.38864 3.88864 5.5 5 5.5V4.5ZM2 7.5V22.5H3V7.5H2ZM2 22.5C2 23.2957 2.31607 24.0587 2.87868 24.6213L3.58579 23.9142C3.21071 23.5391 3 23.0304 3 22.5H2ZM2.87868 24.6213C3.44129 25.1839 4.20435 25.5 5 25.5V24.5C4.46957 24.5 3.96086 24.2893 3.58579 23.9142L2.87868 24.6213ZM5 25.5H25V24.5H5V25.5ZM25 25.5C25.7957 25.5 26.5587 25.1839 27.1213 24.6213L26.4142 23.9142C26.0391 24.2893 25.5304 24.5 25 24.5V25.5ZM27.1213 24.6213C27.6839 24.0587 28 23.2957 28 22.5H27C27 23.0304 26.7893 23.5391 26.4142 23.9142L27.1213 24.6213ZM28 22.5V7.5H27V22.5H28ZM28 7.5C28 5.83473 26.6495 4.5 25 4.5V5.5C26.1005 5.5 27 6.39027 27 7.5H28Z" fill="black" mask="url(#path-1-inside-1_8_32)"/>
</svg>
