<svg width="57" height="63" viewBox="0 0 57 63" fill="none" xmlns="http://www.w3.org/2000/svg">
<path d="M7.5863 20.6692V23.7942C7.5863 32.44 12.3746 40.0025 19.503 44.2108V54.0025H52.003V49.8358C52.003 44.2942 40.4546 41.5025 34.6696 41.5025C34.6696 41.5025 34.3013 41.5025 34.128 41.5025C23.8363 41.5025 15.1696 33.1692 15.1696 23.7942V20.6692M34.6696 20.6692C32.3711 20.6692 30.1667 21.5471 28.5414 23.1099C26.9161 24.6727 26.003 26.7924 26.003 29.0025C26.003 31.2126 26.9161 33.3322 28.5414 34.8951C30.1667 36.4579 32.3711 37.3358 34.6696 37.3358C36.9682 37.3358 39.1726 36.4579 40.7979 34.8951C42.4232 33.3322 43.3363 31.2126 43.3363 29.0025C43.3363 26.7924 42.4232 24.6727 40.7979 23.1099C39.1726 21.5471 36.9682 20.6692 34.6696 20.6692Z" fill="#0075FF"/>
<g clip-path="url(#clip0_294_11)">
<path d="M5.68975 14.9753L3.2409 8.59588C3.07606 8.16643 3.2908 7.6841 3.72025 7.51925C4.1497 7.3544 4.63202 7.56915 4.79687 7.9986L6.29007 11.8885L6.91246 11.6496L4.70252 5.89252C4.53767 5.46308 4.75242 4.98075 5.18187 4.8159C5.61131 4.65105 6.09364 4.8658 6.25849 5.29524L8.46843 11.0523L9.09081 10.8134L6.52251 4.12275C6.35766 3.6933 6.57241 3.21098 7.00185 3.04613C7.4313 2.88128 7.91363 3.09602 8.07848 3.52547L10.6468 10.2161L11.2692 9.97722L9.17869 4.53133C9.01384 4.10189 9.22858 3.61956 9.65803 3.45471C10.0875 3.28986 10.5698 3.50461 10.7347 3.93405L13.5419 11.2471L14.0087 11.0679L14.0429 8.53402C14.0484 8.13915 14.2343 7.76785 14.5375 7.5158L14.9671 7.16524C15.4091 6.8099 16.0584 7.12479 16.0542 7.69054L15.9912 13.1633C15.9549 15.3195 14.6091 17.2643 12.5801 18.0431C9.82919 19.0991 6.74574 17.7263 5.68975 14.9753Z" fill="#0075FF"/>
</g>
<defs>
<clipPath id="clip0_294_11">
<rect width="16" height="16" fill="white" transform="translate(0 5.73389) rotate(-21)"/>
</clipPath>
</defs>
</svg>
