<svg width="79" height="40" viewBox="0 0 79 40" fill="none" xmlns="http://www.w3.org/2000/svg">
<path d="M26.9008 13.4879C26.8938 13.5427 26.9325 13.5928 26.9873 13.5998L27.88 13.7141C27.9348 13.7211 27.9849 13.6824 27.9919 13.6276C27.9989 13.5728 27.9602 13.5227 27.9054 13.5157L27.1119 13.4141L27.2134 12.6206C27.2205 12.5658 27.1817 12.5157 27.1269 12.5087C27.0722 12.5017 27.0221 12.5404 27.0151 12.5952L26.9008 13.4879ZM42.0119 13.5999C42.0668 13.5933 42.1059 13.5435 42.0993 13.4887L41.9918 12.5951C41.9852 12.5403 41.9354 12.5012 41.8806 12.5078C41.8258 12.5144 41.7867 12.5642 41.7933 12.619L41.8888 13.4133L41.0945 13.5088C41.0397 13.5154 41.0006 13.5652 41.0072 13.62C41.0137 13.6749 41.0635 13.714 41.1184 13.7074L42.0119 13.5999ZM27.0612 13.5798C30.0375 11.2788 32.3257 10.1664 34.5762 10.1772C36.8266 10.188 39.0638 11.322 41.9382 13.5793L42.0618 13.422C39.1795 11.1586 36.8973 9.98836 34.5771 9.97723C32.257 9.9661 29.9236 11.1141 26.9388 13.4215L27.0612 13.5798Z" fill="#9B9B9B"/>
<path d="M17.04 36.88C16.8 36.88 16.5333 36.8133 16.24 36.68C15.9733 36.5467 15.68 36.3867 15.36 36.2L2.04 28.44C1.72 28.2533 1.48 28.0133 1.32 27.72C1.18667 27.4 1.12 27.08 1.12 26.76C1.12 26.4133 1.2 26.0933 1.36 25.8C1.52 25.48 1.76 25.24 2.08 25.08L15.32 17.48C15.6133 17.2933 15.88 17.16 16.12 17.08C16.3867 16.9733 16.64 16.92 16.88 16.92C17.3333 16.8933 17.76 17.0933 18.16 17.52C18.56 17.9467 18.76 18.4 18.76 18.88C18.76 19.1467 18.68 19.4 18.52 19.64C18.3867 19.8533 18.1867 20.04 17.92 20.2L3.96 28.2L3.76 25.16L17.84 33.44C18.1867 33.6267 18.4267 33.84 18.56 34.08C18.6933 34.32 18.76 34.5867 18.76 34.88C18.76 35.4133 18.5733 35.88 18.2 36.28C17.8267 36.68 17.44 36.88 17.04 36.88ZM61.1103 36.52C60.657 36.52 60.2303 36.3067 59.8303 35.88C59.457 35.4267 59.2703 34.9733 59.2703 34.52C59.2703 34.2267 59.337 33.9733 59.4703 33.76C59.6303 33.5467 59.8703 33.3467 60.1903 33.16L74.1503 25.24L74.3903 28.24L60.1503 19.92C59.857 19.76 59.6436 19.56 59.5103 19.32C59.4036 19.08 59.3503 18.8133 59.3503 18.52C59.3503 17.9867 59.537 17.52 59.9103 17.12C60.2836 16.72 60.6703 16.52 61.0703 16.52C61.3103 16.52 61.5636 16.5867 61.8303 16.72C62.1236 16.8533 62.417 17.0133 62.7103 17.2L76.0703 24.92C76.3903 25.1067 76.6303 25.3467 76.7903 25.64C76.9503 25.9333 77.0303 26.2667 77.0303 26.64C77.0303 26.9867 76.9503 27.3067 76.7903 27.6C76.657 27.8933 76.4303 28.1333 76.1103 28.32L62.6703 35.92C62.377 36.08 62.097 36.2267 61.8303 36.36C61.5903 36.4667 61.3503 36.52 61.1103 36.52Z" fill="#FF0000"/>
<path d="M44.6166 11.92C45.1766 11.92 45.6566 12.1067 46.0566 12.48C46.4566 12.8533 46.6566 13.3067 46.6566 13.84C46.6566 14.1333 46.5899 14.44 46.4566 14.76L36.3366 38.68C36.1232 39.1333 35.8299 39.4667 35.4566 39.68C35.1099 39.8933 34.7499 40 34.3766 40C34.0032 39.9733 33.6432 39.8533 33.2966 39.64C32.9766 39.4267 32.7232 39.12 32.5366 38.72L22.4166 14.76C22.3632 14.6267 22.3232 14.4933 22.2966 14.36C22.2699 14.2 22.2566 14.04 22.2566 13.88C22.2566 13.2667 22.4832 12.7867 22.9366 12.44C23.3899 12.0933 23.8299 11.92 24.2566 11.92C25.1099 11.92 25.7366 12.36 26.1366 13.24L35.2966 34.96H34.1366L42.7766 13.2C43.1499 12.3467 43.7632 11.92 44.6166 11.92ZM54.4897 37.96C54.4897 38.5467 54.303 39.04 53.9297 39.44C53.5564 39.8133 53.0764 40 52.4897 40C51.9297 40 51.4497 39.8133 51.0497 39.44C50.6764 39.04 50.4897 38.5467 50.4897 37.96V20.84C50.4897 20.2533 50.6764 19.7733 51.0497 19.4C51.4497 19 51.9297 18.8 52.4897 18.8C53.0764 18.8 53.5564 19 53.9297 19.4C54.303 19.7733 54.4897 20.2533 54.4897 20.84V37.96ZM52.4497 16.16C51.6764 16.16 51.1164 16.0267 50.7697 15.76C50.423 15.4667 50.2497 14.9867 50.2497 14.32V13.68C50.2497 13.0133 50.4364 12.5467 50.8097 12.28C51.183 12.0133 51.743 11.88 52.4897 11.88C53.2897 11.88 53.863 12.0267 54.2097 12.32C54.5564 12.5867 54.7297 13.04 54.7297 13.68V14.32C54.7297 15.0133 54.543 15.4933 54.1697 15.76C53.823 16.0267 53.2497 16.16 52.4497 16.16Z" fill="#007CC2"/>
<g clip-path="url(#clip0_231_10)">
<rect width="10" height="10" transform="translate(50.1488 6.06973) rotate(12)" fill="white"/>
<path d="M49.5723 14.1259L49.629 8.51511L52.098 11.5958L54.6237 9.06559L55.9019 12.4043L59.4105 10.5942L57.1802 15.743L49.5723 14.1259ZM56.8683 17.2102C56.8059 17.5037 56.547 17.6531 56.2209 17.5838L49.6999 16.1977C49.3739 16.1284 49.1981 15.8866 49.2605 15.5932L49.3644 15.1041L56.9722 16.7212L56.8683 17.2102Z" fill="url(#paint0_diamond_231_10)"/>
</g>
<defs>
<radialGradient id="paint0_diamond_231_10" cx="0" cy="0" r="1" gradientUnits="userSpaceOnUse" gradientTransform="translate(53.7921 12.9782) rotate(102) scale(4 5)">
<stop stop-color="#895900"/>
<stop offset="0.822917" stop-color="#BF913B"/>
</radialGradient>
<clipPath id="clip0_231_10">
<rect width="10" height="10" fill="white" transform="translate(50.1488 6.06973) rotate(12)"/>
</clipPath>
</defs>
</svg>
