<svg width="31" height="30" viewBox="0 0 31 30" fill="none" xmlns="http://www.w3.org/2000/svg">
<path d="M16.5417 11.25V11.5H16.7917H23.8959H24.5137L24.0698 11.0703L16.9656 4.19535L16.5417 3.78517V4.375V11.25ZM18.0834 25.25H18.3334V25V23.75C18.3334 23.2392 18.0665 22.8125 17.6841 22.4714C17.303 22.1315 16.7878 21.8577 16.2346 21.6434C15.1283 21.2149 13.806 21 12.9167 21C12.0275 21 10.7052 21.2149 9.59889 21.6434C9.04569 21.8577 8.5305 22.1315 8.14939 22.4714C7.76698 22.8125 7.50008 23.2392 7.50008 23.75V25V25.25H7.75008H18.0834ZM7.75008 2.75H17.9823L25.5834 10.106V25C25.5834 25.594 25.3396 26.1655 24.9029 26.5881C24.4659 27.011 23.8715 27.25 23.2501 27.25H7.75008C6.44744 27.25 5.41675 26.2301 5.41675 25V5C5.41675 3.75823 6.44661 2.75 7.75008 2.75ZM12.9167 14.75C12.1679 14.75 11.4481 15.0378 10.9162 15.5526C10.384 16.0676 10.0834 16.768 10.0834 17.5C10.0834 18.232 10.384 18.9324 10.9162 19.4474C11.4481 19.9622 12.1679 20.25 12.9167 20.25C13.6656 20.25 14.3854 19.9622 14.9173 19.4474C15.4495 18.9324 15.7501 18.232 15.7501 17.5C15.7501 16.768 15.4495 16.0676 14.9173 15.5526C14.3854 15.0378 13.6656 14.75 12.9167 14.75Z" fill="#FF5858" stroke="black" stroke-width="0.5"/>
</svg>
