<svg width="30" height="30" viewBox="0 0 30 30" fill="none" xmlns="http://www.w3.org/2000/svg">
<path d="M3.27505 8.675C3.27505 7.87305 3.46122 7.10729 3.79472 6.43105C6.47265 9.56111 10.3964 11.6152 14.7874 11.8372L15.1165 11.8538L15.0439 11.5324C14.9603 11.162 14.9125 10.768 14.9125 10.3625C14.9125 7.53731 17.2014 5.25 20 5.25C21.5062 5.25 22.8265 5.84649 23.7659 6.86913L23.8618 6.97346L24.0005 6.94485C25.0046 6.73783 25.9682 6.40459 26.8637 5.94447C26.4294 6.86554 25.7303 7.63085 24.8711 8.14834L25.0318 8.61048C25.8335 8.50793 26.6158 8.32361 27.3635 8.05713C26.7553 8.83221 26.0484 9.51713 25.2547 10.0841L25.1432 10.1637L25.1504 10.3006C25.1625 10.5305 25.1625 10.7491 25.1625 10.9875C25.1625 17.9673 19.8334 26 10.15 26C7.54657 26 5.09399 25.3318 2.95653 24.1598C3.0377 24.1616 3.11887 24.1625 3.20005 24.1625C5.78218 24.1625 8.14936 23.293 10.0181 21.8082L10.5651 21.3736L9.86652 21.3625C7.76325 21.3291 5.99082 20.0163 5.24244 18.1997C5.4466 18.224 5.65418 18.2375 5.86255 18.2375C6.37137 18.2375 6.86896 18.1723 7.34196 18.0409L7.32384 17.5548C5.10468 17.1132 3.40094 15.2178 3.23785 12.9022C3.89739 13.1906 4.63016 13.375 5.41255 13.375H6.25966L5.54829 12.9151C4.16932 12.0235 3.27505 10.4524 3.27505 8.675Z" fill="#00F0FF" stroke="black" stroke-width="0.5"/>
</svg>
