<svg width="30" height="31" viewBox="0 0 30 31" fill="none" xmlns="http://www.w3.org/2000/svg">
<path d="M15.05 2.58333C8.225 2.58333 2.6625 8.33125 2.6625 15.3838C2.6625 17.6442 3.2375 19.84 4.3125 21.7775L2.5625 28.4167L9.125 26.6342C10.9375 27.6546 12.975 28.1971 15.05 28.1971C21.875 28.1971 27.4375 22.4492 27.4375 15.3967C27.4375 11.9738 26.15 8.7575 23.8125 6.34208C21.475 3.91375 18.3625 2.58333 15.05 2.58333ZM15.0625 4.74042C17.8125 4.74042 20.3875 5.85125 22.3375 7.86625C24.275 9.88125 25.35 12.555 25.35 15.3967C25.35 21.2608 20.725 26.0271 15.05 26.0271C13.2 26.0271 11.3875 25.5233 9.8125 24.5417L9.4375 24.3221L5.5375 25.3813L6.575 21.4546L6.325 21.0413C5.3 19.375 4.75 17.3988 4.75 15.3838C4.7625 9.51958 9.375 4.74042 15.0625 4.74042ZM10.6625 9.46792C10.4625 9.46792 10.125 9.54542 9.8375 9.86833C9.5625 10.1913 8.75 10.9792 8.75 12.5421C8.75 14.1179 9.8625 15.6292 10 15.8488C10.175 16.0683 12.2 19.2975 15.3125 20.6667C16.05 21.0154 16.625 21.2092 17.075 21.3513C17.8125 21.5967 18.4875 21.5579 19.025 21.4804C19.625 21.39 20.85 20.7054 21.1125 19.9563C21.375 19.2071 21.375 18.5742 21.3 18.4321C21.2125 18.3029 21.0125 18.2254 20.7 18.0833C20.3875 17.9025 18.8625 17.1275 18.5875 17.0242C18.3 16.9208 18.125 16.8692 17.8875 17.1792C17.6875 17.5021 17.0875 18.2254 16.9125 18.4321C16.725 18.6517 16.55 18.6775 16.25 18.5225C15.925 18.3546 14.925 18.0188 13.75 16.9338C12.825 16.0813 12.2125 15.035 12.025 14.7121C11.875 14.4021 12.0125 14.2083 12.1625 14.0663C12.3 13.9242 12.5 13.6917 12.625 13.4979C12.7875 13.3171 12.8375 13.175 12.9375 12.9683C13.0375 12.7488 12.9875 12.5679 12.9125 12.4129C12.8375 12.2708 12.2125 10.6692 11.95 10.0363C11.7 9.41625 11.45 9.49375 11.25 9.48083C11.075 9.48083 10.875 9.46792 10.6625 9.46792Z" fill="#00E409"/>
</svg>
